<?xml version="1.0" encoding="UTF-8" standalone="no"?>
<!-- Created with Inkscape (http://www.inkscape.org/) -->

<svg
   version="1.1"
   id="svg1"
   width="1228.8"
   height="691.20001"
   viewBox="0 0 1228.8 691.20001"
   xmlns="http://www.w3.org/2000/svg"
   xmlns:svg="http://www.w3.org/2000/svg">
  <defs
     id="defs1" />
  <g
     id="g1"
     style="opacity:0.28">
    <path
       d="m 474.22896,690.59638 c 0.41974,-0.32454 4.43516,-3.17888 8.92316,-6.34297 76.29242,-53.78697 103.99779,-98.32724 100.98466,-162.34695 -0.51213,-10.8811 -0.68499,-13.40532 -1.65453,-24.16 -2.64573,-29.348 -9.28974,-59.87345 -17.89992,-82.24 -1.01629,-2.64 -2.03116,-5.304 -2.25527,-5.92 -0.22411,-0.616 -1.54124,-3.568 -2.92697,-6.56 -32.5617,-70.30584 -86.42112,-78.67349 -129.59252,-20.13361 -10.75998,14.59039 -18.53611,29.16263 -29.27133,54.85361 -18.86166,45.13876 -33.95879,68.19653 -54.08479,82.60342 -41.98502,30.05435 -92.91034,-2.09452 -137.69081,-86.92342 -2.60145,-4.928 -5.38566,-10.112 -6.18713,-11.52 -22.99974,-40.40504 -73.00504,-25.05265 -152.22142,46.7343 -12.870361,11.66329 -35.124003,33.38539 -45.7177091,44.6257 l -4.67467304,4.96 -0.0038,-1.82294 -0.0038,-1.82295 7.14530304,-7.45705 C 65.184589,446.50194 118.74582,406.91116 152.9104,399.3431 c 25.0918,-5.55827 41.61689,2.07684 53.68329,24.80336 1.40168,2.64 3.88423,7.32 5.51677,10.4 26.81998,50.5993 58.42228,84.01254 87.52165,92.53701 35.23242,10.3211 68.67069,-18.25402 94.80516,-81.01701 12.96304,-31.13126 17.17532,-39.83469 26.09618,-53.92 18.32345,-28.93123 38.91136,-45.70303 60.86022,-49.57936 45.89272,-8.10499 85.62394,42.28234 99.65216,126.37936 4.79557,28.7487 6.78763,64.59802 4.54321,81.76 -6.66908,50.9951 -35.44612,89.57896 -101.27696,135.79076 l -6.68003,4.68924 h -2.08312 -2.08312 z"
       style="fill:#c6aadb;fill-opacity:1"
       id="path1-23" />
    <path
       d="m 1221.1434,515.5328 c -95.4595,-45.56799 -156.1366,-101.53768 -182.7105,-168.53573 -1.6074,-4.05254 -1.8237,-4.62138 -2.9829,-7.84465 -5.5334,-15.3864 -10.1441,-36.55802 -10.1461,-46.5898 l -5e-4,-2.59444 -10.48,-0.18832 c -24.11335,-0.4333 -51.57655,-4.03186 -68.42354,-8.96568 -46.1338,-13.51081 -62.48084,-43.22528 -49.54042,-90.05099 2.03956,-7.38027 3.86733,-12.4602 8.43598,-23.44613 16.29116,-39.1743 58.39803,-97.489078 116.28078,-161.0399941 l 5.7563,-6.32000025 h 1.5455 c 2.0288,0 2.43,-0.60482 -4.95,7.46099025 C 924.53238,116.04962 881.18641,196.74807 898.58476,240.77333 c 5.92506,14.99295 19.453,27.17151 37.91876,34.13646 1.408,0.53108 3.28,1.2389 4.16,1.57294 8.6343,3.27755 25.39233,6.86508 39.36003,8.42613 2.464,0.27538 5.56,0.64277 6.88,0.81641 6.3768,0.83885 18.69815,1.64039 27.86365,1.81259 l 10.1038,0.18983 0.4151,-4.76531 c 1.0332,-11.86057 4.7917,-19.75027 11.1437,-23.39209 12.3072,-7.05618 30.8468,1.23637 30.5019,13.6432 -0.239,8.60116 -12.1423,14.42098 -33.2204,16.24236 l -6.1679,0.53297 v 2.41122 c 0,22.26608 13.9114,61.72362 31.8234,90.2622 31.6714,50.46101 92.4109,98.80339 166.1766,132.25946 l 3.28,1.48763 v 1.29387 c 0,1.63333 0.7069,1.83308 -7.68,-2.1704 z m -187.04,-228.38631 c 20.0386,-1.91135 31.2694,-7.58439 30.4639,-15.38834 -0.774,-7.49966 -12.498,-14.09943 -21.6077,-12.16364 -8.7248,1.85402 -13.7484,9.18639 -15.2662,22.28255 -0.776,6.69573 -1.5835,6.03189 6.41,5.26943 z"
       style="fill:#c6aadb;fill-opacity:1"
       id="path1-2" />
    <path
       d="m 654.84897,689.27711 c -2.47224,-12.44551 0.64861,-29.76585 8.34613,-46.32 6.46204,-13.89715 10.96529,-20.85535 32.6571,-50.46017 66.76917,-91.12602 76.43811,-127.9844 49.96047,-190.45145 -6.80238,-16.04843 -9.51132,-21.81599 -24.72643,-52.64459 -4.41812,-8.95191 -8.03294,-16.32696 -8.03294,-16.389 0,-0.062 -0.65687,-1.44975 -1.45972,-3.0838 -30.01973,-61.09996 -32.77907,-157.52804 -8.13399,-284.250987 1.27019,-6.531206 6.72319,-31.841121 8.13536,-37.7600021 2.09182,-8.76752125 1.72029,-7.84000025 3.14041,-7.84000025 1.03529,0 1.21206,0.09285 1.0661,0.55999998 C 712.67598,10.640501 702.39932,61.968656 698.32671,87.917112 690.59768,137.1622 687.21262,190.49174 689.67389,224.2371 c 2.69636,36.96869 7.80652,63.08263 17.31437,88.48001 3.69917,9.88123 5.58545,13.98012 17.74501,38.56 26.10459,52.76902 33.90053,73.30613 36.44182,96 4.36674,38.99528 -11.88822,76.57462 -63.67142,147.2 -16.7311,22.81898 -18.87648,25.89334 -24.17321,34.64049 -13.41671,22.15666 -19.73302,45.53687 -16.14441,59.75951 0.26645,1.056 0.48958,2.028 0.49585,2.16 0.006,0.132 -0.53919,0.24 -1.21212,0.24 h -1.22352 z"
       style="fill:#4e2172;fill-opacity:1"
       id="path1-1" />
    <path
       d="m 0.02887786,247.08343 7.63e-4,-1.2 9.51923724,-3.18832 c 9.6306029,-3.22563 15.3810029,-5.23408 25.8392379,-9.02487 5.672311,-2.05604 6.612512,-2.40956 12.624833,-4.74692 1.663657,-0.64677 5.047658,-1.9449 7.52,-2.88474 2.47234,-0.93985 5.93517,-2.31113 7.69517,-3.0473 1.76,-0.73617 5.432,-2.24438 8.16,-3.35156 15.40349,-6.25166 41.064011,-17.91559 48.577341,-22.08072 29.50461,-16.35635 46.83386,-38.13933 51.29296,-64.47557 1.1323,-6.68759 1.0444,-22.4 -0.12532,-22.4 -0.83467,0 -13.92837,-4.07813 -19.58496,-6.09988 -36.91212,-13.192928 -49.65118,-28.70504 -39.66566,-48.30011 10.78185,-21.15777 42.07643,-3.16353 56.20915,32.320002 2.2973,5.76793 5.37329,16.993618 5.37766,19.625588 0.001,0.87069 16.24597,4.9811 27.91186,7.06265 1.45584,0.25977 4.97747,0.91327 7.82583,1.45223 102.72618,19.43753 250.80048,14.96469 289.8718,-8.75608 22.42229,-13.612878 31.95982,-35.20209 21.87175,-49.50899 l -0.59554,-0.8446 -3.76342,1.24791 c -18.738,6.2133 -27.60342,4.19438 -27.60342,-6.28612 0,-6.05926 2.11652,-8.8351 7.44397,-9.76283 6.92322,-1.20563 16.07276,2.63623 22.7093,9.53555 l 2.15328,2.23853 3.76672,-1.51928 c 11.47467,-4.62823 27.17719,-12.5194 46.0001,-23.11696 12.52631,-7.05249 35.56258,-20.7987011 45.82584,-27.3452214 l 4.2192,-2.69125995 2.24225,0.0944 2.24225,0.0944 -5.34145,3.33619995 C 580.05475,28.56476 548.04243,46.22254 526.74815,55.03435 c -2.024,0.83755 -3.67287,1.64121 -3.66416,1.78592 0.009,0.1447 0.69154,1.63109 1.51741,3.30309 9.85267,19.94711 -7.9566,45.81757 -38.80171,56.36492 -61.63961,21.0774 -219.88613,19.0238 -307.75713,-3.99385 l -4.22558,-1.10688 0.22558,1.0079 c 0.57464,2.56753 0.21199,16.8973 -0.53976,21.3279 -4.51827,26.62942 -21.19255,48.13693 -50.21699,64.77296 -19.50526,11.17989 -70.443758,32.1759 -111.763205,46.06696 -12.8497721,4.31993 -11.49468214,4.02282 -11.49372714,2.52008 z M 170.28019,104.04343 c -8.54484,-39.88479 -44.77736,-69.50937 -56.48731,-46.18537 -7.83526,15.60633 0.84171,28.414952 27.03526,39.90844 8.24431,3.61752 27.16756,10.17439 29.80307,10.3267 0.46444,0.0268 0.42509,-0.42712 -0.35102,-4.04977 z M 506.10815,59.30756 c 3.62679,-0.76747 11.35625,-3.04857 12.25186,-3.61573 1.04411,-0.6612 -6.22203,-6.51326 -10.59028,-8.52927 -9.44447,-4.35877 -16.51462,-2.23727 -16.53277,4.96088 -0.0179,7.09386 4.64739,9.3476 14.87119,7.18412 z"
       style="fill:#4e2172;fill-opacity:1"
       id="path1-8" />
  </g>
</svg>
